<?xml version="1.0" encoding="utf-8"?>
<!-- Generator: Adobe Illustrator 12.0.0, SVG Export Plug-In . SVG Version: 6.00 Build 51448)  -->
<!DOCTYPE svg PUBLIC "-//W3C//DTD SVG 1.1//EN" "http://www.w3.org/Graphics/SVG/1.1/DTD/svg11.dtd" [
	<!ENTITY ns_svg "http://www.w3.org/2000/svg">
	<!ENTITY ns_xlink "http://www.w3.org/1999/xlink">
]>
<svg  version="1.1" id="Layer_1" xmlns="&ns_svg;" xmlns:xlink="&ns_xlink;" width="25" height="25" viewBox="0 0 25 25"
	 overflow="visible" enable-background="new 0 0 25 25" xml:space="preserve">
<path id="path3243" fill="#B3B2B2" d="M11.845,0.002c-0.264,0.018-0.52,0.059-0.779,0.088h-0.017l-0.62,3.382
	c-1.011,0.229-1.961,0.62-2.815,1.15l-2.78-2.001C4.082,3.206,3.398,3.886,2.797,4.623l1.93,2.815
	C4.142,8.333,3.7,9.356,3.453,10.43c0,0.005,0,0.017,0,0.018l-3.364,0.531C0.027,11.482,0,12,0,12.519
	c0,0.425,0.011,0.843,0.053,1.258l3.364,0.602c0.239,1.168,0.693,2.26,1.328,3.221l-2.001,2.745c0.573,0.712,1.234,1.359,1.947,1.93
	l2.834-1.947c0.989,0.632,2.095,1.074,3.293,1.292l0.531,3.347C11.727,25,12.113,25,12.5,25c0.546,0,1.067-0.021,1.593-0.089
	l0.637-3.416c1.138-0.283,2.207-0.774,3.134-1.435l2.727,1.982c0.706-0.602,1.354-1.292,1.911-2.035l-1.982-2.868
	c0.537-0.927,0.908-1.95,1.098-3.046l3.346-0.53C24.994,13.215,25,12.875,25,12.519c0-0.62-0.071-1.228-0.159-1.823l-3.399-0.62
	c-0.268-0.983-0.704-1.9-1.257-2.726l2.001-2.745c-0.621-0.759-1.329-1.459-2.107-2.054l-2.887,1.983
	c-0.829-0.491-1.722-0.867-2.69-1.08L13.969,0.09c-0.482-0.057-0.97-0.088-1.469-0.088c-0.135,0-0.274-0.004-0.407,0
	c-0.065,0.002-0.13-0.004-0.195,0C11.881,0.003,11.862,0.001,11.845,0.002L11.845,0.002z M12.306,8.606c0.064-0.004,0.129,0,0.194,0
	c2.096,0,3.806,1.711,3.806,3.808c0,2.096-1.71,3.788-3.806,3.788s-3.789-1.692-3.789-3.788C8.711,10.383,10.3,8.708,12.306,8.606
	L12.306,8.606z"/>
</svg>
